<svg width="8" height="5" viewBox="0 0 8 5" fill="none" xmlns="http://www.w3.org/2000/svg">
<path fill-rule="evenodd" clip-rule="evenodd" d="M3.76003 4.12891H3.67916C3.63922 4.09499 3.59648 4.06381 3.55981 4.02666C3.39433 3.85909 3.23045 3.68997 3.06624 3.52116C2.04412 2.47043 1.02208 1.41965 0 0.368881V0.227375C0.064911 0.149041 0.14842 0.128826 0.248606 0.128906C2.56161 0.130908 4.87461 0.130443 7.18761 0.130625C7.22454 0.130645 7.26241 0.128623 7.29823 0.135658C7.43262 0.162059 7.48326 0.298188 7.39884 0.405349C7.36977 0.442222 7.3354 0.475011 7.30256 0.50877C6.17825 1.66482 5.05398 2.8209 3.92896 3.97624C3.87612 4.03052 3.81649 4.07817 3.76003 4.12891Z" fill="#1D1D1B"/>
</svg>
