<svg width="20" height="20" viewBox="0 0 20 20" fill="none" xmlns="http://www.w3.org/2000/svg">
<path fill-rule="evenodd" clip-rule="evenodd" d="M12.4748 10.3559C12.5454 9.66638 12.6133 9.00369 12.6836 8.31612H10.8533V7.31999C10.8533 6.64941 10.9632 6.53939 11.6329 6.53939H12.6418V4.57418C11.9502 4.57418 11.2687 4.554 10.5889 4.57875C9.48595 4.61896 8.66998 5.32628 8.51675 6.41134C8.43914 6.96098 8.46823 7.52565 8.44832 8.08349C8.44566 8.15797 8.43856 8.2323 8.43215 8.32705H7.31398V10.3639H8.45316V16.128H10.8608V10.3559H12.4748ZM10.6968 20H9.29142C9.23504 19.9873 9.17918 19.9708 9.12214 19.9625C8.72425 19.9049 8.32054 19.8743 7.92897 19.7883C5.59175 19.2752 3.66734 18.0846 2.17142 16.2166C1.06519 14.8353 0.376302 13.2656 0.112824 11.5126C0.0745265 11.2578 0.0375561 11.0026 0 10.7476V9.26412C0.0421237 8.96371 0.0746046 8.66158 0.127855 8.36316C0.581729 5.81946 1.80859 3.72441 3.8459 2.13737C6.21689 0.290408 8.91609 -0.360498 11.8626 0.188359C14.5098 0.68139 16.6245 2.07444 18.1751 4.27693C19.7366 6.49504 20.2788 8.9698 19.8561 11.6423C19.5655 13.48 18.7907 15.109 17.57 16.5156C16.0205 18.3008 14.0829 19.419 11.7535 19.8448C11.4035 19.9087 11.0492 19.9489 10.6968 20Z" fill="#0A2540"/>
</svg>
