<svg width="22" height="20" viewBox="0 0 22 20" fill="none" xmlns="http://www.w3.org/2000/svg">
<mask id="mask0_488_7401" style="mask-type:luminance" maskUnits="userSpaceOnUse" x="0" y="0" width="22" height="20">
<path fill-rule="evenodd" clip-rule="evenodd" d="M0.994629 0H21.007V20H0.994629V0Z" fill="white"/>
</mask>
<g mask="url(#mask0_488_7401)">
<path fill-rule="evenodd" clip-rule="evenodd" d="M4.82727 9.99653C4.82727 10.7366 4.82307 11.4767 4.82939 12.2166C4.83183 12.5025 4.83671 12.7912 4.87744 13.0733C5.05238 14.2845 5.62062 15.2261 6.77205 15.7468C7.33241 16.0001 7.92965 16.1038 8.53889 16.1072C10.179 16.1165 11.8191 16.1178 13.4592 16.1067C14.1092 16.1023 14.7447 15.9872 15.3336 15.6928C16.5692 15.075 17.1027 13.998 17.1456 12.6897C17.2001 11.0314 17.1673 9.37001 17.1608 7.71002C17.1594 7.37218 17.1356 7.02925 17.0735 6.69777C16.8477 5.4914 16.194 4.61772 15.0263 4.17014C14.5048 3.97028 13.9581 3.89087 13.4029 3.88883C11.8895 3.88318 10.3761 3.88254 8.86266 3.89003C8.50413 3.89179 8.1414 3.90531 7.78819 3.96136C6.51246 4.1637 5.56301 4.80483 5.09311 6.05092C4.91068 6.53462 4.82711 7.03881 4.82727 7.5564C4.82747 8.36975 4.82731 9.18314 4.82727 9.99653ZM0.994629 10.7188V9.27856C1.02015 9.10245 1.04876 8.92675 1.07076 8.75021C1.33123 6.65812 2.15907 4.81235 3.59466 3.27822C6.01675 0.689871 9.01492 -0.384114 12.5301 0.121754C15.1003 0.491604 17.2071 1.73937 18.8147 3.76993C20.7552 6.22098 21.3982 9.01644 20.7805 12.0734C20.3246 14.33 19.1667 16.1979 17.4047 17.6782C16.0586 18.8091 14.5144 19.5363 12.7783 19.841C12.4258 19.9028 12.0703 19.9474 11.7161 20H10.2759C9.95412 19.9553 9.63056 19.9205 9.31084 19.8642C7.45191 19.5365 5.80396 18.7598 4.39053 17.5068C2.6631 15.9753 1.57819 14.073 1.15593 11.7999C1.0894 11.4419 1.04776 11.0792 0.994629 10.7188Z" fill="#0A2540"/>
</g>
<path fill-rule="evenodd" clip-rule="evenodd" d="M14.2619 7.40393C14.6212 7.40585 14.9173 7.11525 14.9148 6.76316C14.9124 6.41152 14.6117 6.11504 14.2605 6.11788C13.9113 6.12068 13.63 6.4032 13.6265 6.75452C13.6227 7.12377 13.8949 7.40197 14.2619 7.40393ZM14.241 10.0021C14.237 8.19316 12.7963 6.75212 10.9938 6.75404C9.18117 6.75596 7.74606 8.20376 7.75066 10.0258C7.75518 11.8174 9.21342 13.2491 11.0283 13.2438C12.8027 13.2386 14.2449 11.7834 14.241 10.0021ZM11.0006 5.04149C11.8667 5.04137 12.7332 5.03009 13.5992 5.04421C14.7156 5.06241 15.5175 5.58336 15.8461 6.51589C15.9505 6.81229 16.0237 7.13657 16.0269 7.44898C16.0442 9.14837 16.0526 10.8483 16.0279 12.5475C16.0153 13.4084 15.7006 14.1505 14.9203 14.6145C14.5169 14.8545 14.0617 14.949 13.6001 14.9518C11.861 14.9626 10.1215 14.9765 8.38274 14.948C7.40097 14.9319 6.58022 14.5631 6.18825 13.5819C6.06471 13.2726 5.97178 12.9278 5.9677 12.598C5.94613 10.8655 5.93433 9.13217 5.96718 7.40001C5.98382 6.52377 6.33263 5.77891 7.15062 5.34025C7.53183 5.13582 7.95405 5.05209 8.38194 5.04561C9.25462 5.03233 10.1277 5.04165 11.0006 5.04149Z" fill="#0A2540"/>
<path fill-rule="evenodd" clip-rule="evenodd" d="M10.9929 7.88966C12.1446 7.88622 13.1072 8.84823 13.1048 10.0001C13.1023 11.1548 12.1378 12.1152 10.9889 12.1068C9.83884 12.0984 8.89643 11.1566 8.88679 10.0061C8.87723 8.85895 9.83836 7.8931 10.9929 7.88966Z" fill="#0A2540"/>
</svg>
