<svg width="15" height="21" viewBox="0 0 15 21" fill="none" xmlns="http://www.w3.org/2000/svg">
<path d="M14.9758 7.46194C14.9601 8.85077 14.601 10.0748 14.0858 11.2675C13.2114 13.2762 12.0014 15.0809 10.6196 16.7522C9.72178 17.835 8.75374 18.855 7.80911 19.8986C7.5593 20.1732 7.42658 20.1654 7.16115 19.8986C5.18603 17.9135 3.40608 15.7714 1.96182 13.3625C1.16552 12.0286 0.478527 10.6476 0.174061 9.1097C-0.388028 6.27712 0.416072 3.86825 2.5161 1.91448C3.58563 0.910131 4.87376 0.313799 6.32582 0.0940973C8.46489 -0.227608 10.4088 0.274566 12.1107 1.61631C13.6564 2.83252 14.562 4.44105 14.8899 6.37913C14.9133 6.49682 14.9211 6.61452 14.9367 6.73222C14.9523 7.00685 14.9679 7.27363 14.9758 7.46194ZM7.47342 10.985C9.34705 10.9929 10.9006 9.4471 10.9084 7.57179C10.9162 5.65725 9.38609 4.08795 7.50465 4.08011C5.59198 4.07226 4.04624 5.61017 4.03843 7.52471C4.03843 9.43141 5.57637 10.985 7.47342 10.985Z" fill="#0A2540"/>
</svg>
