<svg width="20" height="20" viewBox="0 0 20 20" fill="none" xmlns="http://www.w3.org/2000/svg">
<mask id="mask0_488_7412" style="mask-type:luminance" maskUnits="userSpaceOnUse" x="0" y="0" width="20" height="20">
<path fill-rule="evenodd" clip-rule="evenodd" d="M0.00683594 0H19.9943V20H0.00683594V0Z" fill="white"/>
</mask>
<g mask="url(#mask0_488_7412)">
<path fill-rule="evenodd" clip-rule="evenodd" d="M5.64126 11.0324C5.77026 11.5114 6.02329 11.8887 6.42038 12.1259C6.79744 12.351 7.21633 12.506 7.62292 12.6948C6.72701 13.3684 5.6636 13.5508 4.55298 13.5892C4.62244 13.6386 4.68909 13.6694 4.75672 13.6976C5.68922 14.0867 6.65467 14.3422 7.6643 14.425C9.14705 14.5465 10.5491 14.2974 11.7691 13.4103C13.623 12.0625 14.4574 10.1915 14.4482 7.92433C14.4475 7.75736 14.4902 7.68058 14.6387 7.61041C15.0112 7.43465 15.2978 7.15977 15.5076 6.79577C15.1229 6.85954 14.7588 6.91993 14.3948 6.98028C14.3878 6.95977 14.3807 6.93921 14.3737 6.91869C14.7347 6.62099 15.1114 6.33501 15.2212 5.85652C14.8909 5.97549 14.5733 6.11004 14.2437 6.20223C13.9807 6.27581 13.7416 6.26444 13.4938 6.04756C12.4553 5.13909 10.5029 5.54892 10.0636 6.9535C9.95334 7.30587 9.94277 7.69226 9.91178 8.0651C9.89952 8.21279 9.87003 8.26852 9.71488 8.27998C9.16525 8.32057 8.64045 8.21843 8.13009 8.02864C7.12276 7.65398 6.27144 7.03499 5.48086 6.32257C5.40657 6.25565 5.33112 6.19002 5.23423 6.10431C4.72595 7.26062 5.06904 8.17349 5.93617 8.98405C5.54779 9.07349 5.23143 8.92592 4.87618 8.7959C4.88239 9.99417 5.73349 10.4906 6.59761 10.977C6.5917 10.9955 6.58584 11.0139 6.57993 11.0324H5.64126ZM0.00683594 10.7634V9.25356C0.0395194 9.0142 0.0677621 8.77414 0.105597 8.53563C0.433097 6.47151 1.27012 4.63929 2.73857 3.14979C5.50693 0.341729 8.8517 -0.617635 12.661 0.387913C17.4719 1.65786 20.6297 6.38003 19.8859 11.4897C19.632 13.2344 18.9516 14.81 17.8501 16.1905C16.3016 18.1312 14.3073 19.351 11.8657 19.8242C11.4831 19.8983 11.0946 19.9421 10.7089 20H9.28786C9.21632 19.9854 9.14527 19.9673 9.07311 19.9569C8.70848 19.9042 8.33897 19.8752 7.97955 19.7985C5.75437 19.3237 3.88795 18.2307 2.40409 16.5035C1.25027 15.1604 0.503926 13.6155 0.182332 11.8711C0.114567 11.5036 0.0648756 11.1327 0.00683594 10.7634Z" fill="#0A2540"/>
</g>
</svg>
