<svg width="17" height="16" viewBox="0 0 17 16" fill="none" xmlns="http://www.w3.org/2000/svg">
<path d="M8.40154 0.00027714C8.68202 0.00027714 8.85917 0.133138 8.97727 0.376716C9.69324 1.8308 10.4092 3.28489 11.1252 4.73897C11.1842 4.85707 11.2433 4.90874 11.3761 4.93088C12.9779 5.1597 14.5722 5.38852 16.1665 5.62471C16.602 5.69114 16.8382 5.9421 16.7718 6.31854C16.7496 6.45878 16.6537 6.60641 16.5503 6.70974C15.3841 7.8612 14.2105 8.9979 13.0443 10.142C12.9705 10.2158 12.9409 10.2822 12.9557 10.3929C13.2362 12.0168 13.5093 13.648 13.7898 15.2719C13.8341 15.5228 13.7676 15.7295 13.5683 15.8771C13.3543 16.0395 13.1255 16.0321 12.8967 15.9067C11.45 15.1464 10.0032 14.3861 8.56392 13.6259C8.43845 13.5594 8.34987 13.5594 8.22439 13.6259C6.79245 14.3861 5.35312 15.1316 3.92118 15.8919C3.6776 16.0174 3.44141 16.0469 3.21259 15.8771C3.02806 15.7443 2.94687 15.5524 2.98378 15.3309C3.21259 13.9654 3.44879 12.5999 3.68499 11.227C3.73665 10.9318 3.7957 10.6365 3.83261 10.3413C3.83999 10.2748 3.78094 10.1863 3.72927 10.1346C2.57781 9.00528 1.42635 7.88334 0.267513 6.76141C0.134653 6.62855 0.00917322 6.49569 0.00179207 6.2964C-0.0203514 5.97901 0.164177 5.72067 0.474186 5.669C1.13111 5.55828 1.79541 5.46971 2.45971 5.37375C3.47093 5.22613 4.47477 5.07851 5.48599 4.9235C5.55242 4.91612 5.62623 4.83493 5.65575 4.7685C6.3791 3.31441 7.10246 1.85295 7.81843 0.398859C7.95129 0.133138 8.12844 -0.00710401 8.40154 0.00027714Z" fill="#FFDE0F"/>
</svg>
