<svg width="22" height="22" viewBox="0 0 22 22" fill="none" xmlns="http://www.w3.org/2000/svg">
<path d="M8.21042 18.2001C9.86351 16.547 11.4938 14.9167 13.1166 13.2939C8.83981 13.2939 4.56301 13.2939 0.316546 13.2939C0.316546 11.7015 0.316546 10.1849 0.316547 8.68345C4.54784 8.68345 8.82464 8.68345 13.1166 8.68345C13.1242 8.66071 13.1394 8.63037 13.1394 8.60004C11.4938 6.95454 9.85592 5.31661 8.20284 3.66353C9.29478 2.57158 10.3564 1.50996 11.4332 0.433182C14.9289 3.92893 18.4171 7.4171 21.9204 10.9204C18.4247 14.4162 14.9289 17.9119 11.4332 21.4077C10.3564 20.3461 9.29478 19.2844 8.21042 18.2001Z" fill="white"/>
</svg>
