<svg width="317" height="520" viewBox="0 0 317 520" fill="none" xmlns="http://www.w3.org/2000/svg">
<g opacity="0.7">
<path fill-rule="evenodd" clip-rule="evenodd" d="M158.259 67.6878C107.514 67.8375 66.89 108.555 66.8944 159.264C66.8967 210.005 108.37 251.357 158.896 251.006C209.317 250.655 250.332 209.259 250.14 158.911C249.945 108.376 208.814 67.5404 158.259 67.6878M158.355 317.819C70.9041 317.741 -0.102638 246.467 0.000111372 158.87C0.100627 71.6104 71.1945 0.741201 158.552 0.819401C246.108 0.895366 317.367 72.3142 316.999 159.616C316.63 246.917 245.451 317.897 158.355 317.819" fill="white"/>
<path fill-rule="evenodd" clip-rule="evenodd" d="M0 374.186C8.72013 370.445 17.3149 368.092 24.5287 363.431C59.2503 340.994 94.1689 342.17 129.622 360.952C132.438 362.447 135.281 363.906 137.993 365.589C152.79 374.77 167.122 373.469 181.825 364.761C191.299 359.148 201.143 353.476 211.526 350.405C235.721 343.255 259.464 346.593 282.149 357.782C287.523 360.436 292.617 363.722 298.058 366.199C303.949 368.885 310.095 370.964 317 373.646V432.456C305.41 433.194 294.159 431.197 283.509 426.329C276.204 422.994 269.174 418.957 262.193 414.916C244.121 404.455 227.079 404.949 209.124 416.653C177.823 437.058 145.189 438.794 112.256 420.026C107.853 417.514 103.466 414.954 98.952 412.668C82.9442 404.572 67.2811 404.847 52.4439 415.624C36.7875 426.997 19.298 431.855 0 432.437V374.186Z" fill="white"/>
<path fill-rule="evenodd" clip-rule="evenodd" d="M317 460.395V518.679C303.635 519.716 291.247 517.063 279.517 511.158C273.163 507.96 267.044 504.253 260.815 500.784C243.424 491.095 226.902 491.585 209.739 502.752C177.896 523.474 144.884 525.528 111.491 506.074C107.434 503.71 103.405 501.262 99.2063 499.203C83.2301 491.377 67.5803 491.256 52.6571 502.038C37.8569 512.732 21.4402 518.098 3.51673 518.693C2.44584 518.725 1.37495 518.697 0 518.697V458.134C10.3043 458.884 18.545 454.017 26.6449 448.82C58.5973 428.319 91.3277 428.785 124.622 444.852C128.831 446.885 133.017 449.046 137.001 451.518C152.496 461.132 167.636 460.33 182.723 450.44C194.766 442.549 207.409 436.276 221.807 434.355C243.269 431.49 263.677 434.786 283.089 444.731C286.758 446.613 290.268 448.848 294.008 450.538C301.229 453.804 308.56 456.798 317 460.395" fill="white"/>
</g>
</svg>
