<svg width="21" height="20" viewBox="0 0 21 20" fill="none" xmlns="http://www.w3.org/2000/svg">
<path d="M12.5481 14.5426C11.0874 14.5426 9.61873 14.5426 8.15808 14.5426C6.75361 14.5426 5.75845 13.5073 5.86278 12.1029C5.88686 11.7578 6.06342 11.4287 6.15973 11.0917C6.19183 10.9873 6.20788 10.8509 6.16775 10.7546C5.19666 7.80118 4.21754 4.83976 3.23843 1.88636C3.03779 1.27641 2.61244 0.971443 1.96237 0.963418C1.49688 0.963418 1.02338 0.971443 0.557896 0.963418C0.148593 0.955392 -0.0841472 0.674498 0.0282104 0.337425C0.0924147 0.144812 0.2449 0.0164035 0.46159 0.0164035C1.06351 0.00837799 1.67345 -0.0237241 2.26734 0.0324547C3.1983 0.120736 3.81627 0.658447 4.12926 1.54126C4.25767 1.90241 4.37805 2.26356 4.48239 2.6247C4.52251 2.75311 4.57869 2.80127 4.71513 2.80127C7.2191 2.83337 9.73109 2.8735 12.2351 2.9056C14.7952 2.94573 17.3554 2.97783 19.9155 3.01796C20.068 3.01796 20.2285 3.08216 20.3569 3.15439C20.5094 3.24267 20.5495 3.40318 20.5094 3.57172C20.1242 5.17683 19.755 6.77391 19.3537 8.37902C19.0648 9.55075 18.1579 10.2971 16.9621 10.4175C15.6218 10.5459 14.2816 10.6984 12.9413 10.8429C11.7295 10.9713 10.5096 11.0917 9.29771 11.2201C8.63159 11.2923 7.9735 11.3645 7.30738 11.4207C7.09871 11.4368 7.01846 11.5411 6.94623 11.7176C6.72151 12.2313 6.74559 12.7208 7.10674 13.1622C7.30738 13.411 7.57222 13.5394 7.87719 13.5796C7.98152 13.5956 8.09388 13.5956 8.19821 13.5956C11.1436 13.5956 14.097 13.5956 17.0424 13.5956C17.1387 13.5956 17.243 13.6036 17.3393 13.6197C17.5881 13.6679 17.7406 13.8524 17.7326 14.1012C17.7245 14.342 17.548 14.5266 17.3072 14.5507C17.235 14.5587 17.1627 14.5587 17.0905 14.5587C15.5737 14.5426 14.0569 14.5426 12.5481 14.5426ZM4.85156 3.74828C4.94787 4.04523 5.03615 4.31007 5.12443 4.57491C5.75042 6.47697 6.37641 8.37099 7.00241 10.273C7.05056 10.4255 7.11477 10.4657 7.26725 10.4496C7.63643 10.4015 8.01363 10.3694 8.3828 10.3292C9.73912 10.1928 11.0954 10.0564 12.4517 9.9119C13.9365 9.75941 15.4292 9.5989 16.914 9.44642C17.7245 9.36616 18.2542 8.91673 18.4468 8.1222C18.7117 7.03073 18.9845 5.93123 19.2494 4.83975C19.3216 4.55084 19.3858 4.26192 19.458 3.95694C14.5785 3.89274 9.73109 3.82051 4.85156 3.74828Z" fill="#27DEC5"/>
<path d="M6.52884 20.0002C5.34908 20.0002 4.39404 19.0452 4.39404 17.8574C4.39404 16.6857 5.35711 15.7146 6.53686 15.7065C7.70859 15.7065 8.69573 16.7017 8.68771 17.8654C8.67968 19.0452 7.70859 20.0002 6.52884 20.0002ZM5.35711 17.8413C5.34908 18.4994 5.85469 19.0291 6.51279 19.0452C7.17891 19.0612 7.72464 18.5315 7.72464 17.8734C7.73267 17.2314 7.19496 16.6857 6.55291 16.6696C5.91087 16.6536 5.36513 17.1832 5.35711 17.8413Z" fill="#27DEC5"/>
<path d="M17.7408 17.8572C17.7327 19.053 16.7777 20 15.5819 20C14.4021 19.992 13.4471 19.029 13.4551 17.8492C13.4632 16.6694 14.4342 15.7064 15.606 15.7144C16.7777 15.7144 17.7408 16.6855 17.7408 17.8572ZM15.5899 19.037C16.248 19.037 16.7697 18.5153 16.7857 17.8572C16.7938 17.2152 16.232 16.6534 15.5899 16.6614C14.9479 16.6694 14.4021 17.2152 14.4102 17.8572C14.4102 18.5153 14.9399 19.037 15.5899 19.037Z" fill="#27DEC5"/>
</svg>
