<svg width="87" height="36" viewBox="0 0 87 36" fill="none" xmlns="http://www.w3.org/2000/svg">
<path fill-rule="evenodd" clip-rule="evenodd" d="M32.3037 4.64065C28.7819 4.65104 25.9626 7.47687 25.9629 10.9961C25.963 14.5175 28.8413 17.3874 32.3478 17.3631C35.8471 17.3387 38.6936 14.4658 38.6802 10.9716C38.6667 7.46446 35.8122 4.63042 32.3037 4.64065ZM32.3103 22C26.2411 21.9946 21.3132 17.0481 21.3203 10.9688C21.3273 4.91294 26.2613 -0.00542263 32.3239 4.48706e-06C38.4004 0.00527655 43.3458 4.96179 43.3202 11.0206C43.2946 17.0793 38.3548 22.0054 32.3103 22Z" fill="#0A2540"/>
<path fill-rule="evenodd" clip-rule="evenodd" d="M3.1005 14.2226C3.81577 14.2226 4.53088 14.2198 5.24615 14.2237C5.6762 14.226 5.80279 14.3625 5.83007 14.7986C5.84739 15.0791 5.86287 15.3635 5.92019 15.6373C6.08586 16.427 6.54978 16.9718 7.31762 17.2264C8.33312 17.563 9.37009 17.6238 10.4113 17.3756C11.097 17.2121 11.5925 16.803 11.7039 16.0713C11.8198 15.3102 11.5962 14.6325 10.8932 14.2697C10.0699 13.8447 9.21483 13.4667 8.34293 13.1554C6.59898 12.5329 4.89074 11.8573 3.29698 10.8866C0.150231 8.97015 -0.140965 3.81611 3.3874 1.56212C5.42883 0.258132 7.65678 -0.115249 10.0126 0.0291766C11.5102 0.120944 12.9299 0.501408 14.2122 1.30945C16.0106 2.44253 17.1015 4.02197 17.2235 6.19959C17.2327 6.36572 17.2439 6.53479 17.2241 6.69892C17.1858 7.01872 17.0173 7.21349 16.6714 7.21318C15.2027 7.21164 13.734 7.21395 12.2653 7.21118C11.9488 7.21057 11.7732 7.04828 11.7363 6.72479C11.5798 5.3529 10.9841 4.6919 9.64994 4.4865C8.91168 4.37287 8.15718 4.39443 7.48253 4.75872C7.15807 4.93394 6.83761 5.19431 6.63086 5.49578C6.18073 6.15186 6.3884 6.97314 7.15669 7.34668C8.24224 7.87449 9.36196 8.34411 10.4985 8.74967C12.1263 9.33029 13.7273 9.94418 15.1097 11.0181C16.897 12.4068 17.4967 14.2919 17.277 16.4672C17.0201 19.0108 15.4604 20.5647 13.1659 21.3159C9.69163 22.4536 6.29414 22.2259 3.13575 20.2276C1.17508 18.9871 0.31376 17.1296 0.32035 14.8362C0.321729 14.3712 0.484799 14.2247 0.954849 14.2232C1.67012 14.2207 2.38523 14.2226 3.1005 14.2226Z" fill="#0A2540"/>
<path fill-rule="evenodd" clip-rule="evenodd" d="M53.5683 18.091H63.3203V22H48.3203V0H53.5683V18.091Z" fill="#0A2540"/>
<path fill-rule="evenodd" clip-rule="evenodd" d="M82.9585 16.3743C82.9585 15.7241 82.9634 15.0736 82.9544 14.4235C82.9524 14.2911 82.931 14.1356 82.8605 14.0314C82.4705 13.4559 81.9102 13.2176 81.2361 13.2723C80.614 13.3227 80.2303 13.7072 80.0355 14.2799C79.6018 15.5553 79.5675 16.8608 79.9166 18.152C80.2664 19.4458 81.8279 19.8011 82.7472 18.8217C82.862 18.6994 82.9429 18.4947 82.9491 18.3249C82.9723 17.6754 82.9585 17.0246 82.9585 16.3743ZM82.9632 11.9394V6H86.3203V21.75H83.4244C83.3456 21.3551 83.2627 20.938 83.1706 20.4765C83.0745 20.5946 83.0021 20.6781 82.9354 20.766C81.4595 22.7102 78.7107 22.0913 77.6128 20.7352C76.8062 19.7386 76.4544 18.5771 76.361 17.3176C76.2425 15.7189 76.3513 14.1531 77.1123 12.7036C77.9171 11.1709 79.3186 10.435 80.9829 10.6542C81.7936 10.7609 82.3799 11.2447 82.9632 11.9394Z" fill="#0A2540"/>
<path fill-rule="evenodd" clip-rule="evenodd" d="M21.3203 25.9119C21.9255 25.6523 22.522 25.4889 23.0226 25.1655C25.4323 23.6084 27.8557 23.69 30.3162 24.9935C30.5116 25.0972 30.7089 25.1985 30.8971 25.3153C31.9241 25.9524 32.9187 25.8621 33.9391 25.2578C34.5966 24.8683 35.2797 24.4746 36.0003 24.2615C37.6795 23.7652 39.3273 23.9969 40.9016 24.7735C41.2746 24.9576 41.6281 25.1857 42.0057 25.3576C42.4146 25.544 42.8411 25.6883 43.3203 25.8744V29.9559C42.516 30.0071 41.7351 29.8685 40.996 29.5307C40.489 29.2992 40.0011 29.0191 39.5166 28.7386C38.2625 28.0126 37.0798 28.0469 35.8337 28.8591C33.6613 30.2752 31.3965 30.3958 29.1109 29.0932C28.8054 28.9189 28.501 28.7412 28.1876 28.5826C27.0767 28.0207 25.9897 28.0398 24.96 28.7877C23.8734 29.577 22.6596 29.9142 21.3203 29.9546V25.9119Z" fill="#27DEC5"/>
<path fill-rule="evenodd" clip-rule="evenodd" d="M43.3203 31.8949V35.9398C42.3928 36.0118 41.533 35.8277 40.7189 35.4179C40.278 35.1959 39.8533 34.9386 39.421 34.6979C38.2141 34.0255 37.0674 34.0595 35.8763 34.8344C33.6664 36.2726 31.3753 36.4151 29.0579 35.065C28.7763 34.9009 28.4967 34.7311 28.2053 34.5882C27.0965 34.0451 26.0104 34.0366 24.9747 34.7849C23.9476 35.5271 22.8083 35.8995 21.5644 35.9408C21.4901 35.943 21.4157 35.9411 21.3203 35.9411V31.7379C22.0354 31.79 22.6073 31.4522 23.1695 31.0916C25.387 29.6688 27.6585 29.7011 29.9691 30.8162C30.2613 30.9573 30.5517 31.1073 30.8282 31.2788C31.9036 31.946 32.9544 31.8903 34.0014 31.204C34.8372 30.6563 35.7146 30.221 36.7138 30.0877C38.2034 29.8888 39.6196 30.1176 40.9669 30.8078C41.2215 30.9383 41.4651 31.0935 41.7247 31.2108C42.2258 31.4375 42.7346 31.6452 43.3203 31.8949Z" fill="#27DEC5"/>
<path fill-rule="evenodd" clip-rule="evenodd" d="M68.3203 21.9991V11.0045H68.7498C69.5006 11.0045 70.2513 11.0118 71.0017 11.0002C71.2218 10.9966 71.321 11.05 71.3203 11.334C71.313 14.7797 71.3172 18.2254 71.3081 21.6711C71.3078 21.7805 71.1981 21.9836 71.1368 21.985C70.2097 22.0053 69.2823 21.9991 68.3203 21.9991Z" fill="#0A2540"/>
<path fill-rule="evenodd" clip-rule="evenodd" d="M49.3249 29.4849C49.9156 29.6679 50.2501 29.458 50.566 29.021C51.2149 28.1235 51.9321 27.2786 52.6013 26.3963C52.8154 26.1139 53.0418 25.9599 53.398 26.0091C53.601 26.0371 53.8106 26.0143 54.1114 26.0143C53.0695 27.3456 52.0851 28.6033 51.0878 29.8776C52.154 31.2346 53.2085 32.5766 54.3203 33.9917C53.8709 33.9917 53.5041 34.0176 53.1441 33.9778C53.0171 33.9638 52.8875 33.8051 52.7925 33.6845C52.0577 32.7509 51.2981 31.835 50.6155 30.8621C50.2671 30.3652 49.8682 30.3483 49.3394 30.4407V33.9728H48.3203V26.0481H49.3249V29.4849Z" fill="#0A2540"/>
<path fill-rule="evenodd" clip-rule="evenodd" d="M66.3203 31.6714H67.345C67.4059 32.2089 67.6336 32.6678 68.1848 32.9207C68.813 33.209 69.4672 33.2387 70.1319 33.0759C70.7084 32.935 71.0732 32.5605 71.1311 32.0872C71.1993 31.5285 70.9782 31.0802 70.404 30.8318C69.9034 30.6154 69.3551 30.5008 68.8401 30.3117C68.3903 30.1462 67.9225 29.9901 67.5233 29.7416C66.156 28.8913 66.1895 27.3005 67.5657 26.457C68.8965 25.6416 70.9708 25.9496 71.7992 27.1239C72.0339 27.4567 72.1296 27.8779 72.3203 28.3325H71.1725C71.0007 26.9431 69.6952 26.6015 68.4577 26.9917C67.9524 27.1512 67.6721 27.5312 67.6353 28.0377C67.6011 28.5088 67.8438 28.874 68.2805 29.0578C68.8473 29.2964 69.4498 29.4573 70.0278 29.6735C70.4382 29.8273 70.8581 29.9796 71.2305 30.1991C71.9443 30.6199 72.3176 31.2508 72.2526 32.062C72.1835 32.9231 71.6409 33.4647 70.8207 33.739C69.5941 34.1489 68.3934 34.1037 67.2768 33.4045C66.6072 32.985 66.3216 32.4611 66.3203 31.6714Z" fill="#0A2540"/>
<path fill-rule="evenodd" clip-rule="evenodd" d="M65.2223 30.3673C65.3014 29.4865 64.7996 28.8482 64.0234 28.8157C63.2034 28.7812 62.5534 29.4593 62.5488 30.3673H65.2223ZM66.3203 31.2537H62.4304C62.4731 31.9723 62.6058 32.6183 63.2643 32.9596C64.1183 33.4022 64.9188 33.1187 65.6733 32.6467C65.6957 32.6563 65.7289 32.6596 65.7411 32.6771C66.1918 33.3134 66.1783 33.423 65.4428 33.7176C63.4621 34.5109 61.3866 33.619 61.3225 31.2144C61.2952 30.1859 61.5112 29.271 62.3462 28.5708C63.1044 27.9351 63.9677 27.871 64.87 28.179C65.7392 28.4758 66.1017 29.1741 66.2348 30.0007C66.2974 30.3887 66.2909 30.787 66.3203 31.2537Z" fill="#0A2540"/>
<path fill-rule="evenodd" clip-rule="evenodd" d="M78.3203 33.8612H77.3534C77.3186 33.6185 77.2863 33.3917 77.2469 33.1167C77.1744 33.1769 77.124 33.2082 77.0875 33.2507C76.4337 34.0169 75.5863 34.141 74.6649 33.8676C73.7545 33.5979 73.3835 32.8765 73.3493 32.0411C73.2943 30.7058 73.3345 29.3668 73.3345 28H74.4354C74.4354 28.1683 74.4331 28.3404 74.436 28.5126C74.4561 29.727 74.43 30.9444 74.5157 32.1546C74.5674 32.8876 75.0626 33.1886 75.8142 33.1212C76.6828 33.0433 77.224 32.5703 77.225 31.8827C77.2267 30.599 77.2255 29.3155 77.2255 28.0015H78.3203V33.8612Z" fill="#0A2540"/>
<path fill-rule="evenodd" clip-rule="evenodd" d="M84.081 29.2813H83.3203V28.5589H84.0824C84.0824 28.2443 84.0723 27.9718 84.0839 27.7002C84.1361 26.5069 84.8944 25.8403 85.9738 26.0329C86.0749 26.0509 86.1753 26.0731 86.3203 26.1023C86.2924 26.3471 86.2664 26.5779 86.2401 26.8083C86.2228 26.7779 86.2054 26.7475 86.1882 26.7171C85.8493 26.8494 85.4265 26.888 85.1913 27.1366C84.863 27.4839 84.9841 28.0263 85.0053 28.536H86.005V29.273H84.9865V31.635V34H84.081V29.2813Z" fill="#0A2540"/>
<path fill-rule="evenodd" clip-rule="evenodd" d="M60.2539 33.1526C60.4196 33.8801 60.3059 34.013 59.5613 33.9991C58.7874 33.9847 58.2812 33.5038 58.263 32.7085C58.2394 31.678 58.2515 30.6466 58.2485 29.6156C58.248 29.4644 58.2483 29.3132 58.2483 29.1158C58.0764 29.1075 57.9227 29.0771 57.7766 29.0976C57.3994 29.1503 57.2799 28.9884 57.3318 28.6496C57.3449 28.5638 57.3421 28.4757 57.3484 28.3552H58.2365V27H59.2653V28.3274H60.303V29.0684H59.2771V29.4704C59.2771 30.3869 59.2766 31.3034 59.2773 32.2198C59.2776 33.0649 59.39 33.1741 60.2539 33.1526Z" fill="#0A2540"/>
<path fill-rule="evenodd" clip-rule="evenodd" d="M68.3203 8H71.3203V6H68.3203V8Z" fill="#0A2540"/>
<path fill-rule="evenodd" clip-rule="evenodd" d="M80.4066 34H79.3203V28.1201H80.2692C80.3063 28.3451 80.3449 28.5789 80.3872 28.8359C81.3385 27.9887 81.5444 27.9053 82.3203 28.0677C82.2771 28.3804 82.2332 28.6974 82.185 29.0478C81.8988 29.0478 81.6308 29.0191 81.372 29.0536C80.7436 29.1371 80.4069 29.5306 80.4068 30.139C80.4061 31.4084 80.4066 32.6778 80.4066 34Z" fill="#0A2540"/>
<path fill-rule="evenodd" clip-rule="evenodd" d="M55.3203 34H56.3203V28H55.3203V34Z" fill="#0A2540"/>
<path fill-rule="evenodd" clip-rule="evenodd" d="M55.3203 27H56.3203V26H55.3203V27Z" fill="#0A2540"/>
</svg>
