<svg width="55" height="30" viewBox="0 0 55 30" fill="none" xmlns="http://www.w3.org/2000/svg">
<path fill-rule="evenodd" clip-rule="evenodd" d="M0 4.77968C1.51295 4.13066 3.00416 3.72235 4.25577 2.91381C10.28 -0.979049 16.3384 -0.775097 22.4897 2.4837C22.9782 2.74298 23.4714 2.9962 23.942 3.2882C26.5093 4.88105 28.9958 4.65528 31.5468 3.14442C33.1906 2.1707 34.8985 1.18648 36.7 0.653781C40.8979 -0.586895 45.0174 -0.00775143 48.9532 1.93363C49.8856 2.39404 50.7694 2.9643 51.7135 3.39401C52.7355 3.86007 53.8019 4.22072 54.9999 4.68598V14.8896C52.9891 15.0177 51.037 14.6712 49.1893 13.8267C47.9217 13.2479 46.702 12.5476 45.4908 11.8465C42.3553 10.0315 39.3986 10.1172 36.2833 12.1478C30.8525 15.6881 25.1905 15.9894 19.4766 12.733C18.7127 12.2972 17.9516 11.853 17.1683 11.4564C14.3909 10.0517 11.6734 10.0994 9.09908 11.9693C6.38268 13.9426 3.34823 14.7855 0 14.8864V4.77968Z" fill="#FFDE0F"/>
<path fill-rule="evenodd" clip-rule="evenodd" d="M54.9999 19.7371V29.8495C52.6811 30.0295 50.5318 29.5692 48.4965 28.5446C47.3941 27.9897 46.3324 27.3466 45.2518 26.7447C42.2343 25.0637 39.3678 25.1486 36.3899 27.0861C30.8651 30.6815 25.1375 31.0378 19.3439 27.6625C18.6399 27.2523 17.9409 26.8276 17.2124 26.4705C14.4405 25.1126 11.7253 25.0916 9.13608 26.9623C6.56822 28.8176 3.71991 29.7487 0.610158 29.8519C0.424356 29.8576 0.238555 29.8527 0 29.8527V19.3448C1.78781 19.475 3.21758 18.6305 4.62293 17.7289C10.1667 14.1719 15.8455 14.2528 21.622 17.0405C22.3524 17.3932 23.0786 17.7681 23.7698 18.1969C26.4583 19.865 29.0851 19.7258 31.7026 18.01C33.7922 16.6409 35.9857 15.5524 38.4838 15.2191C42.2076 14.722 45.7483 15.294 49.1164 17.0195C49.7529 17.3459 50.3619 17.7338 51.0108 18.027C52.2637 18.5937 53.5356 19.113 54.9999 19.7371" fill="#FFDE0F"/>
</svg>
